<?xml version="1.0" encoding="UTF-8"?>
<svg id="_图层_1" data-name=" 图层 1" xmlns="http://www.w3.org/2000/svg" viewBox="0 0 256.09 32.21">
  <defs>
    <style>
      .cls-1 {
        fill: #0b2d88;
      }
    </style>
  </defs>
  <polygon class="cls-1" points="11.48 31.39 11.48 7.98 0 7.98 0 0 34.61 0 34.61 7.98 23.01 7.98 23.01 31.39 11.48 31.39"/>
  <path class="cls-1" d="m36.61,31.39V6.45h18.5c3.22,0,5.37.13,6.44.4,1.79.44,3.09,1.38,3.89,2.83.59,1.08.89,2.39.89,3.92,0,2.11-.48,3.7-1.44,4.75-.47.51-1.07.91-1.77,1.19-.36.15-.92.31-1.68.48,1.35.4,2.29.84,2.81,1.3.69.63,1.13,1.75,1.32,3.36.11,1.09.18,2.27.22,3.54.04,1.06.1,1.76.2,2.08.07.3.24.65.49,1.08h-9.99c-.13-.75-.23-1.85-.29-3.29-.06-1.33-.15-2.37-.26-3.11-.21-1.32-.8-2.1-1.77-2.36-.58-.12-1.44-.19-2.6-.2h-5.42v8.96h-9.55,0Zm9.55-14.21h6.34c1.12,0,1.89-.08,2.31-.22.89-.32,1.33-1.09,1.33-2.32,0-.96-.34-1.63-1.02-1.99-.45-.25-1.3-.37-2.55-.37h-6.41v4.91h0Z"/>
  <path class="cls-1" d="m66.48,31.39l9.98-24.94h12.62l9.97,24.94h-10.43l-1.04-2.3h-10.19l-.93,2.3h-9.98Zm12.64-8.65h6.59l-3.23-9.16s-3.36,9.16-3.36,9.16Z"/>
  <polygon class="cls-1" points="100.3 31.39 100.3 6.45 110.77 6.45 121.01 20.1 121.01 6.45 130.27 6.45 130.27 31.39 120.1 31.39 109.57 17.87 109.57 31.39 100.3 31.39"/>
  <path class="cls-1" d="m133.42,23.9h12.73c.42.73.94,1.22,1.56,1.48.76.3,1.65.46,2.68.46,2.19,0,3.28-.54,3.28-1.63,0-.77-.53-1.24-1.58-1.42-.97-.16-3.07-.4-6.31-.73-2.96-.3-5.48-.81-7.57-1.52-1.48-.5-2.62-1.29-3.4-2.36s-1.17-2.37-1.17-3.89c0-2.07.7-3.78,2.09-5.12,2.4-2.34,6.82-3.51,13.23-3.51,5.11,0,8.88.82,11.32,2.45,1.39.94,2.4,2.16,3.02,3.67.19.46.39,1.13.61,1.99h-11.95c-.27-.73-.69-1.26-1.25-1.59-.79-.46-1.8-.69-3.05-.69-.87,0-1.58.12-2.12.37-.66.28-.98.71-.98,1.3,0,.64.44,1.07,1.31,1.28,1.13.27,3.42.58,6.86.95,2.09.22,3.61.43,4.57.62.95.2,1.94.49,2.96.9,2.95,1.17,4.42,3.34,4.42,6.51s-1.45,5.51-4.35,6.85c-2.78,1.29-6.62,1.94-11.52,1.94-5.18,0-8.99-.7-11.43-2.08-1.74-.99-2.9-2.26-3.47-3.82-.21-.57-.37-1.37-.47-2.38"/>
  <polygon class="cls-1" points="176.89 31.39 176.89 7.98 165.4 7.98 165.4 0 200.02 0 200.02 7.98 188.41 7.98 188.41 31.39 176.89 31.39"/>
  <polygon class="cls-1" points="201.42 31.39 201.42 6.45 227.95 6.45 227.95 12.8 210.4 12.8 210.4 15.57 224.92 15.57 224.92 21.92 210.4 21.92 210.4 25.04 229.06 25.04 229.06 31.39 201.42 31.39"/>
  <polygon class="cls-1" points="231.18 31.39 231.18 6.45 239.88 6.45 239.88 25.04 256.09 25.04 256.09 31.39 231.18 31.39"/>
</svg>