<?xml version="1.0" encoding="UTF-8"?>
<svg id="_图层_1" data-name="图层 1" xmlns="http://www.w3.org/2000/svg" xmlns:xlink="http://www.w3.org/1999/xlink" viewBox="0 0 256.09 84.47">
  <defs>
    <style>
      .cls-1 {
        fill: #e32f21;
      }

      .cls-2 {
        fill: #0b2d88;
      }

      .cls-3 {
        fill: url(#linear-gradient);
      }
    </style>
    <linearGradient id="linear-gradient" x1="12.97" y1="23.31" x2="228.63" y2="23.31" gradientUnits="userSpaceOnUse">
      <stop offset="0" stop-color="#0b2d88"/>
      <stop offset=".05" stop-color="#0b358d"/>
      <stop offset=".13" stop-color="#0c4b9b"/>
      <stop offset=".19" stop-color="#0e63aa"/>
      <stop offset=".27" stop-color="#1475b9"/>
      <stop offset=".37" stop-color="#1f95d4"/>
      <stop offset=".52" stop-color="#89b929"/>
      <stop offset=".6" stop-color="#babc23"/>
      <stop offset=".66" stop-color="#e2be1f"/>
      <stop offset=".69" stop-color="#f1c01e"/>
      <stop offset=".84" stop-color="#e89215"/>
      <stop offset=".87" stop-color="#e78e15"/>
      <stop offset=".9" stop-color="#e58215"/>
      <stop offset=".92" stop-color="#e36e16"/>
      <stop offset=".95" stop-color="#df5217"/>
      <stop offset=".98" stop-color="#da2e18"/>
      <stop offset="1" stop-color="#d71819"/>
    </linearGradient>
  </defs>
  <path class="cls-1" d="m239.52,43.55c0,2.22-1.61,4.02-3.6,4.02s-3.61-1.8-3.61-4.02,1.61-4.01,3.61-4.01,3.6,1.8,3.6,4.01"/>
  <path class="cls-1" d="m239.87,43.42c0,2.33-1.89,4.23-4.22,4.23s-4.22-1.89-4.22-4.23,1.89-4.22,4.22-4.22,4.22,1.89,4.22,4.22"/>
  <path class="cls-3" d="m12.97,46.63h9.77S86.17-22.01,190.2,18.61c0,0,14.17,5.51,37.47,18.79,0,0,1.63.57.65-.98,0,0-18.08-12.71-35.92-21.02,0,0-94.94-50.44-179.43,31.22"/>
  <polygon class="cls-2" points="11.48 83.67 11.48 60.26 0 60.26 0 52.28 34.61 52.28 34.61 60.26 23.01 60.26 23.01 83.67 11.48 83.67"/>
  <path class="cls-2" d="m36.61,83.67v-24.94h18.5c3.22,0,5.37.13,6.44.4,1.79.44,3.09,1.38,3.89,2.83.59,1.08.89,2.39.89,3.92,0,2.11-.48,3.7-1.44,4.75-.47.51-1.07.91-1.77,1.19-.36.15-.92.31-1.68.48,1.35.4,2.29.84,2.81,1.3.69.63,1.13,1.75,1.32,3.36.11,1.09.18,2.27.22,3.54.04,1.06.1,1.76.2,2.08.07.3.24.65.49,1.08h-9.99c-.13-.75-.23-1.85-.29-3.29-.06-1.33-.15-2.37-.26-3.11-.21-1.32-.8-2.1-1.77-2.36-.58-.12-1.44-.19-2.6-.2h-5.42v8.96h-9.55Zm9.55-14.21h6.34c1.12,0,1.89-.08,2.31-.22.89-.32,1.33-1.09,1.33-2.32,0-.96-.34-1.63-1.02-1.99-.45-.25-1.3-.37-2.55-.37h-6.41v4.91Z"/>
  <path class="cls-2" d="m66.48,83.67l9.98-24.94h12.62l9.97,24.94h-10.43l-1.04-2.3h-10.19l-.93,2.3h-9.98Zm12.64-8.65h6.59l-3.23-9.16-3.36,9.16Z"/>
  <polygon class="cls-2" points="100.3 83.67 100.3 58.73 110.77 58.73 121.01 72.38 121.01 58.73 130.27 58.73 130.27 83.67 120.1 83.67 109.57 70.15 109.57 83.67 100.3 83.67"/>
  <path class="cls-2" d="m133.42,76.18h12.73c.42.73.94,1.22,1.56,1.48.76.3,1.65.46,2.68.46,2.19,0,3.28-.54,3.28-1.63,0-.77-.53-1.24-1.58-1.42-.97-.16-3.07-.4-6.31-.73-2.96-.3-5.48-.81-7.57-1.52-1.48-.5-2.62-1.29-3.4-2.36-.78-1.07-1.17-2.37-1.17-3.89,0-2.07.7-3.78,2.09-5.12,2.4-2.34,6.82-3.51,13.23-3.51,5.11,0,8.88.82,11.32,2.45,1.39.94,2.4,2.16,3.02,3.67.19.46.39,1.13.61,1.99h-11.95c-.27-.73-.69-1.26-1.25-1.59-.79-.46-1.8-.69-3.05-.69-.87,0-1.58.12-2.12.37-.66.28-.98.71-.98,1.3,0,.64.44,1.07,1.31,1.28,1.13.27,3.42.58,6.86.95,2.09.22,3.61.43,4.57.62.95.2,1.94.49,2.96.9,2.95,1.17,4.42,3.34,4.42,6.51s-1.45,5.51-4.35,6.85c-2.78,1.29-6.62,1.94-11.52,1.94-5.18,0-8.99-.7-11.43-2.08-1.74-.99-2.9-2.26-3.47-3.82-.21-.57-.37-1.37-.47-2.38"/>
  <polygon class="cls-2" points="176.89 83.67 176.89 60.26 165.4 60.26 165.4 52.28 200.02 52.28 200.02 60.26 188.41 60.26 188.41 83.67 176.89 83.67"/>
  <polygon class="cls-2" points="201.42 83.67 201.42 58.73 227.95 58.73 227.95 65.08 210.4 65.08 210.4 67.85 224.92 67.85 224.92 74.2 210.4 74.2 210.4 77.32 229.06 77.32 229.06 83.67 201.42 83.67"/>
  <polygon class="cls-2" points="231.18 83.67 231.18 58.73 239.88 58.73 239.88 77.32 256.09 77.32 256.09 83.67 231.18 83.67"/>
</svg>