<?xml version="1.0" encoding="utf-8"?>
<!-- Generator: Adobe Illustrator 27.3.1, SVG Export Plug-In . SVG Version: 6.00 Build 0)  -->
<svg version="1.1" id="_图层_1" xmlns="http://www.w3.org/2000/svg" xmlns:xlink="http://www.w3.org/1999/xlink" x="0px" y="0px"
	 viewBox="0 0 256.1 32.2" style="enable-background:new 0 0 256.1 32.2;" xml:space="preserve">
<style type="text/css">
	.st0{fill:#676767;}
</style>
<polygon class="st0" points="11.5,31.4 11.5,8 0,8 0,0 34.6,0 34.6,8 23,8 23,31.4 "/>
<path class="st0" d="M36.6,31.4V6.4h18.5c3.2,0,5.4,0.1,6.4,0.4c1.8,0.4,3.1,1.4,3.9,2.8c0.6,1.1,0.9,2.4,0.9,3.9
	c0,2.1-0.5,3.7-1.4,4.8c-0.5,0.5-1.1,0.9-1.8,1.2c-0.4,0.1-0.9,0.3-1.7,0.5c1.3,0.4,2.3,0.8,2.8,1.3c0.7,0.6,1.1,1.8,1.3,3.4
	c0.1,1.1,0.2,2.3,0.2,3.5c0,1.1,0.1,1.8,0.2,2.1c0.1,0.3,0.2,0.6,0.5,1.1h-10c-0.1-0.8-0.2-1.9-0.3-3.3c-0.1-1.3-0.2-2.4-0.3-3.1
	c-0.2-1.3-0.8-2.1-1.8-2.4c-0.6-0.1-1.4-0.2-2.6-0.2h-5.4v9L36.6,31.4L36.6,31.4L36.6,31.4z M46.2,17.2h6.3c1.1,0,1.9-0.1,2.3-0.2
	c0.9-0.3,1.3-1.1,1.3-2.3c0-1-0.3-1.6-1-2c-0.5-0.2-1.3-0.4-2.5-0.4h-6.4L46.2,17.2L46.2,17.2L46.2,17.2z"/>
<path class="st0" d="M66.5,31.4l10-24.9h12.6l10,24.9H88.6l-1-2.3H77.4l-0.9,2.3C76.5,31.4,66.5,31.4,66.5,31.4z M79.1,22.7h6.6
	l-3.2-9.2L79.1,22.7z"/>
<polygon class="st0" points="100.3,31.4 100.3,6.4 110.8,6.4 121,20.1 121,6.4 130.3,6.4 130.3,31.4 120.1,31.4 109.6,17.9 
	109.6,31.4 "/>
<path class="st0" d="M133.4,23.9h12.7c0.4,0.7,0.9,1.2,1.6,1.5c0.8,0.3,1.6,0.5,2.7,0.5c2.2,0,3.3-0.5,3.3-1.6
	c0-0.8-0.5-1.2-1.6-1.4c-1-0.2-3.1-0.4-6.3-0.7c-3-0.3-5.5-0.8-7.6-1.5c-1.5-0.5-2.6-1.3-3.4-2.4s-1.2-2.4-1.2-3.9
	c0-2.1,0.7-3.8,2.1-5.1c2.4-2.3,6.8-3.5,13.2-3.5c5.1,0,8.9,0.8,11.3,2.4c1.4,0.9,2.4,2.2,3,3.7c0.2,0.5,0.4,1.1,0.6,2H152
	c-0.3-0.7-0.7-1.3-1.2-1.6c-0.8-0.5-1.8-0.7-3.1-0.7c-0.9,0-1.6,0.1-2.1,0.4c-0.7,0.3-1,0.7-1,1.3c0,0.6,0.4,1.1,1.3,1.3
	c1.1,0.3,3.4,0.6,6.9,0.9c2.1,0.2,3.6,0.4,4.6,0.6c0.9,0.2,1.9,0.5,3,0.9c2.9,1.2,4.4,3.3,4.4,6.5s-1.4,5.5-4.4,6.9
	c-2.8,1.3-6.6,1.9-11.5,1.9c-5.2,0-9-0.7-11.4-2.1c-1.7-1-2.9-2.3-3.5-3.8C133.7,25.7,133.5,24.9,133.4,23.9"/>
<polygon class="st0" points="176.9,31.4 176.9,8 165.4,8 165.4,0 200,0 200,8 188.4,8 188.4,31.4 "/>
<polygon class="st0" points="201.4,31.4 201.4,6.4 227.9,6.4 227.9,12.8 210.4,12.8 210.4,15.6 224.9,15.6 224.9,21.9 210.4,21.9 
	210.4,25 229.1,25 229.1,31.4 "/>
<polygon class="st0" points="231.2,31.4 231.2,6.4 239.9,6.4 239.9,25 256.1,25 256.1,31.4 "/>
</svg>
